<svg width="20" height="20" viewBox="0 0 20 20" fill="none" xmlns="http://www.w3.org/2000/svg">
<path d="M16.8749 8.12501H7.97568L16.4062 5.89923C16.486 5.8782 16.5608 5.84158 16.6264 5.79148C16.6919 5.74137 16.7469 5.67878 16.7882 5.60731C16.8295 5.53584 16.8561 5.4569 16.8667 5.37506C16.8773 5.29322 16.8716 5.21009 16.8499 5.13048L16.2124 2.78673C16.1247 2.4714 15.9162 2.20334 15.6323 2.04059C15.3483 1.87784 15.0116 1.83351 14.6952 1.9172L2.79756 5.05782C2.63914 5.09894 2.49052 5.17126 2.3604 5.27052C2.23027 5.36979 2.12126 5.49403 2.03974 5.63595C1.95777 5.77612 1.90481 5.93135 1.88401 6.0924C1.8632 6.25345 1.87499 6.41704 1.91865 6.57345L2.4999 8.71563C2.4999 8.72657 2.4999 8.73829 2.4999 8.75001V15.625C2.4999 15.9565 2.6316 16.2745 2.86602 16.5089C3.10044 16.7433 3.41838 16.875 3.7499 16.875H16.2499C16.5814 16.875 16.8994 16.7433 17.1338 16.5089C17.3682 16.2745 17.4999 15.9565 17.4999 15.625V8.75001C17.4999 8.58425 17.4341 8.42528 17.3168 8.30807C17.1996 8.19086 17.0407 8.12501 16.8749 8.12501ZM15.0124 3.12501L15.4812 4.84923L13.714 5.31798L11.5171 4.04923L15.0124 3.12501ZM9.80224 4.50001L11.9991 5.76876L9.11318 6.53048L6.91631 5.26329L9.80224 4.50001ZM3.59912 7.98595L3.13037 6.26095L5.20068 5.71407L7.39756 6.98438L3.59912 7.98595ZM16.2499 15.625H3.7499V9.37501H16.2499V15.625Z" fill="#7A7B9F"/>
</svg>
