<svg width="20" height="20" viewBox="0 0 20 20" fill="none" xmlns="http://www.w3.org/2000/svg">
<path d="M17.9309 5.79766C17.8575 5.72866 17.7686 5.67841 17.6716 5.65121C17.5746 5.624 17.4724 5.62064 17.3739 5.64141C17.2525 5.20514 17.0462 4.79715 16.7666 4.44088C16.4871 4.0846 16.14 3.78706 15.7451 3.56535C15.3503 3.34365 14.9155 3.20214 14.4658 3.14896C14.0161 3.09578 13.5603 3.13198 13.1247 3.25548C12.8504 2.65709 12.4102 2.15002 11.8562 1.79451C11.3023 1.43901 10.6579 1.25003 9.99966 1.25003C9.34144 1.25003 8.69706 1.43901 8.14309 1.79451C7.58913 2.15002 7.14888 2.65709 6.87466 3.25548C6.4391 3.13182 5.98339 3.09543 5.53372 3.1484C5.08405 3.20137 4.64927 3.34265 4.25436 3.56414C3.85945 3.78562 3.51219 4.08294 3.23252 4.43902C2.95284 4.7951 2.74627 5.20293 2.62467 5.63907C2.52199 5.618 2.41567 5.62309 2.31548 5.65387C2.21529 5.68465 2.12445 5.74013 2.05132 5.81521C1.97819 5.89028 1.92511 5.98255 1.89697 6.08351C1.86883 6.18447 1.86653 6.29089 1.89029 6.39298L4.27779 16.5367C4.34242 16.811 4.4978 17.0553 4.71875 17.2302C4.93969 17.405 5.21322 17.5001 5.49498 17.5H14.5044C14.7861 17.5001 15.0596 17.405 15.2806 17.2302C15.5015 17.0553 15.6569 16.811 15.7215 16.5367L18.1083 6.39298C18.1332 6.2869 18.1299 6.17615 18.0988 6.07173C18.0677 5.9673 18.0098 5.87282 17.9309 5.79766ZM5.93716 4.37501C6.29437 4.37401 6.64625 4.46151 6.96138 4.62969C7.04646 4.67482 7.14081 4.69968 7.23708 4.70232C7.33335 4.70497 7.42892 4.68533 7.51635 4.64495C7.60378 4.60456 7.68069 4.54452 7.74108 4.46951C7.80147 4.39449 7.84371 4.30654 7.86451 4.21251C7.97269 3.7269 8.24318 3.29268 8.63134 2.98147C9.0195 2.67027 9.50215 2.50068 9.99966 2.50068C10.4972 2.50068 10.9798 2.67027 11.368 2.98147C11.7562 3.29268 12.0266 3.7269 12.1348 4.21251C12.1556 4.30654 12.1979 4.39449 12.2582 4.46951C12.3186 4.54452 12.3956 4.60456 12.483 4.64495C12.5704 4.68533 12.666 4.70497 12.7622 4.70232C12.8585 4.69968 12.9529 4.67482 13.0379 4.62969C13.3272 4.47624 13.6473 4.38969 13.9745 4.37644C14.3017 4.3632 14.6278 4.42359 14.9285 4.55316C15.2293 4.68273 15.4971 4.87818 15.7122 5.12508C15.9274 5.37198 16.0843 5.66403 16.1715 5.97969L13.159 6.83907L10.4645 5.76094C10.1666 5.64183 9.83429 5.64183 9.53638 5.76094L6.84107 6.84063L3.82779 5.97969C3.95534 5.51825 4.23076 5.11139 4.61179 4.82152C4.99281 4.53166 5.45841 4.3748 5.93716 4.37501ZM5.49498 16.25L3.35201 7.14376L6.30904 7.98829L7.4106 16.25H5.49498ZM11.3278 16.25H8.67154L7.55826 7.90001L9.99966 6.92344L12.4411 7.90001L11.3278 16.25ZM14.5044 16.25H12.5887L13.6903 7.98829L16.6473 7.14376L14.5044 16.25Z" fill="#7A7B9F"/>
</svg>
